<svg width="17" height="17" viewBox="0 0 17 17" fill="none" xmlns="http://www.w3.org/2000/svg">
<path d="M3.16663 0.5H14C14.663 0.5 15.2989 0.763392 15.7677 1.23223C16.2366 1.70107 16.5 2.33696 16.5 3V10.5C16.5 11.163 16.2366 11.7989 15.7677 12.2678C15.2989 12.7366 14.663 13 14 13H10.1783L7.08913 16.0892C6.97258 16.2057 6.82411 16.285 6.66249 16.3172C6.50086 16.3493 6.33333 16.3328 6.18108 16.2697C6.02883 16.2067 5.89869 16.0999 5.80712 15.9629C5.71555 15.8259 5.66666 15.6648 5.66663 15.5V13H3.16663C2.50358 13 1.8677 12.7366 1.39886 12.2678C0.930018 11.7989 0.666626 11.163 0.666626 10.5V3C0.666626 2.33696 0.930018 1.70107 1.39886 1.23223C1.8677 0.763392 2.50358 0.5 3.16663 0.5ZM14 1.33333H3.16663C2.7246 1.33333 2.30068 1.50893 1.98811 1.82149C1.67555 2.13405 1.49996 2.55797 1.49996 3V10.5C1.49996 10.942 1.67555 11.3659 1.98811 11.6785C2.30068 11.9911 2.7246 12.1667 3.16663 12.1667H6.49996V15.5L9.83329 12.1667H14C14.442 12.1667 14.8659 11.9911 15.1785 11.6785C15.491 11.3659 15.6666 10.942 15.6666 10.5V3C15.6666 2.55797 15.491 2.13405 15.1785 1.82149C14.8659 1.50893 14.442 1.33333 14 1.33333ZM8.16663 3H8.99996V7.16667H8.16663V3ZM8.16663 8.83333H8.99996V10.5H8.16663V8.83333Z" fill="#929292"/>
</svg>
