<svg width="8" height="8" viewBox="0 0 8 8" fill="none" xmlns="http://www.w3.org/2000/svg">
<path d="M4.82246 4.00001L7.33079 1.49751C7.44064 1.38766 7.50235 1.23868 7.50235 1.08334C7.50235 0.927997 7.44064 0.779017 7.33079 0.669173C7.22095 0.559329 7.07197 0.49762 6.91663 0.49762C6.76129 0.49762 6.61231 0.559329 6.50246 0.669173L3.99996 3.17751L1.49746 0.669173C1.38762 0.559329 1.23864 0.49762 1.0833 0.49762C0.927955 0.49762 0.778975 0.559329 0.669131 0.669173C0.559287 0.779017 0.497578 0.927997 0.497578 1.08334C0.497578 1.23868 0.559287 1.38766 0.669131 1.49751L3.17746 4.00001L0.669131 6.50251C0.614456 6.55674 0.57106 6.62125 0.541445 6.69234C0.511829 6.76342 0.496582 6.83967 0.496582 6.91667C0.496582 6.99368 0.511829 7.06993 0.541445 7.14101C0.57106 7.21209 0.614456 7.27661 0.669131 7.33084C0.723359 7.38551 0.787877 7.42891 0.858961 7.45853C0.930046 7.48814 1.00629 7.50339 1.0833 7.50339C1.1603 7.50339 1.23655 7.48814 1.30763 7.45853C1.37872 7.42891 1.44324 7.38551 1.49746 7.33084L3.99996 4.82251L6.50246 7.33084C6.55669 7.38551 6.62121 7.42891 6.69229 7.45853C6.76338 7.48814 6.83962 7.50339 6.91663 7.50339C6.99364 7.50339 7.06988 7.48814 7.14097 7.45853C7.21205 7.42891 7.27657 7.38551 7.33079 7.33084C7.38547 7.27661 7.42887 7.21209 7.45848 7.14101C7.4881 7.06993 7.50334 6.99368 7.50334 6.91667C7.50334 6.83967 7.4881 6.76342 7.45848 6.69234C7.42887 6.62125 7.38547 6.55674 7.33079 6.50251L4.82246 4.00001Z" fill="#929292"/>
</svg>
