<svg width="10" height="10" viewBox="0 0 10 10" fill="none" xmlns="http://www.w3.org/2000/svg">
<path d="M6.05745 5L9.28245 1.7825C9.42368 1.64127 9.50302 1.44973 9.50302 1.25C9.50302 1.05028 9.42368 0.85873 9.28245 0.717502C9.14122 0.576274 8.94968 0.496933 8.74995 0.496933C8.55022 0.496933 8.35868 0.576274 8.21745 0.717502L4.99995 3.9425L1.78245 0.717502C1.64123 0.576274 1.44968 0.496933 1.24995 0.496933C1.05023 0.496933 0.858682 0.576274 0.717454 0.717502C0.576226 0.85873 0.496885 1.05028 0.496885 1.25C0.496885 1.44973 0.576226 1.64127 0.717454 1.7825L3.94245 5L0.717454 8.2175C0.647158 8.28723 0.591362 8.37018 0.553286 8.46157C0.515209 8.55296 0.495605 8.65099 0.495605 8.75C0.495605 8.84901 0.515209 8.94704 0.553286 9.03843C0.591362 9.12983 0.647158 9.21278 0.717454 9.2825C0.787176 9.3528 0.870127 9.4086 0.961521 9.44667C1.05292 9.48475 1.15095 9.50435 1.24995 9.50435C1.34896 9.50435 1.44699 9.48475 1.53839 9.44667C1.62978 9.4086 1.71273 9.3528 1.78245 9.2825L4.99995 6.0575L8.21745 9.2825C8.28717 9.3528 8.37012 9.4086 8.46152 9.44667C8.55291 9.48475 8.65094 9.50435 8.74995 9.50435C8.84896 9.50435 8.94699 9.48475 9.03838 9.44667C9.12978 9.4086 9.21273 9.3528 9.28245 9.2825C9.35275 9.21278 9.40854 9.12983 9.44662 9.03843C9.4847 8.94704 9.5043 8.84901 9.5043 8.75C9.5043 8.65099 9.4847 8.55296 9.44662 8.46157C9.40854 8.37018 9.35275 8.28723 9.28245 8.2175L6.05745 5Z" fill="#929292"/>
</svg>
